<?xml version="1.0" encoding="UTF-8" standalone="no"?>
<svg width="231px" height="303px" viewBox="0 0 231 303" version="1.1" xmlns="http://www.w3.org/2000/svg" xmlns:xlink="http://www.w3.org/1999/xlink">
    <!-- Generator: Sketch 44.1 (41455) - http://www.bohemiancoding.com/sketch -->
    <title>Group 2</title>
    <desc>Created with Sketch.</desc>
    <defs></defs>
    <g id="Page-1" stroke="none" stroke-width="1" fill="none" fill-rule="evenodd">
        <g id="Artboard" transform="translate(-524.000000, -95.000000)">
            <g id="Group" transform="translate(526.614165, 94.996703)">
                <g id="Group-2" transform="translate(0.065779, 0.000000)">
                    <polygon id="Path-7" stroke="#444444" stroke-width="5" stroke-linejoin="round" points="142.807947 266.098348 142.807947 229.823723 87.5964132 231.791025 87.5964132 266.098348 116.585154 293.506016"></polygon>
                    <polygon id="Path-4-Copy" fill="#7C7C7C" transform="translate(196.461740, 116.488156) scale(-1, 1) translate(-196.461740, -116.488156) " points="190.317387 99.6218057 202.606092 133.354506 201.660807 119.167856 201.660807 103.876718 201.660807 99.6218057"></polygon>
                    <polygon id="Path-4" fill="#7C7C7C" points="26.783076 99.6218057 40.348808 132.206733 39.3868764 118.900211 38.1264964 104.305961 39.3868764 99.6218057"></polygon>
                    <polygon id="Path-3" stroke="#444444" stroke-width="5" fill="#F4F4F5" points="40.0170665 103.720171 43.7982066 163.619358 70.2661876 214.691296 96.8052034 240.857783 133.91538 240.857783 158.492791 214.691296 189.372102 163.619358 189.372102 100.567582 156.602221 63.3670346 88.8567932 56.4313393 50.1001068 59.2686692"></polygon>
                    <path d="M26.783076,61.4754814 C26.783076,61.4754814 44.954435,25.9731354 59.6648947,15.5838812 C59.6648947,15.5838812 73.5100333,10.3892541 94.2777412,0 L136.678478,0.865771179 L175.61793,22.5100506 L201.577565,54.539786 L202.606092,99.9370646 L183.405821,104.758313 L175.61793,119.483115 L155.026746,83.228344 L155.026746,110.025349 L130.13424,86.0656739 L130.13424,104.758313 L114.182152,86.0656739 L107.447399,99.9370646 L78.7737529,67.5301519 L72.1567576,92.6861104 L53.5661519,83.228344 L41.5925415,99.9370646 L26.783076,99.9370646 L26.783076,61.4754814 Z" id="Path-2" fill="#444444"></path>
                    <polygon id="Path-5" stroke="#444444" stroke-width="5" points="39.1585812 125.473034 32.8566809 125.473034 26.336638 129.013633 29.5683817 158.922809 37.8982011 164.581302 43.2548163 164.581302"></polygon>
                    <polygon id="Path-5-Copy" stroke="#444444" stroke-width="5" transform="translate(197.841344, 145.027168) scale(-1, 1) translate(-197.841344, -145.027168) " points="202.204198 125.473034 195.902297 125.473034 189.382254 129.013633 192.613998 158.922809 200.943818 164.581302 206.300433 164.581302"></polygon>
                    <polyline id="Line" stroke="#444444" stroke-width="5" stroke-linecap="square" points="66.4850474 112.54742 74.6775177 110.025349 86.995713 109.466185 97.9945486 112.54742"></polyline>
                    <polyline id="Line-Copy-5" stroke="#444444" stroke-width="5" stroke-linecap="square" points="132.02481 112.54742 140.21728 110.025349 152.535475 109.466185 163.534311 112.54742"></polyline>
                    <path d="M108.077589,185.862062 L120.687691,185.862062" id="Line-Copy-2" stroke="#444444" stroke-width="5" stroke-linecap="square"></path>
                    <path d="M108.077589,133.669765 L120.687691,133.669765" id="Line-Copy-4" stroke="#444444" stroke-width="6" stroke-linecap="square"></path>
                    <polyline id="Line-Copy-3" stroke="#444444" stroke-width="5" stroke-linecap="square" points="97.0492635 209.016637 118.160629 211.853967 139.271995 198.613094"></polyline>
                    <ellipse id="Oval" fill="#444444" cx="80.9794179" cy="138.398648" rx="6.61699524" ry="6.62043646"></ellipse>
                    <ellipse id="Oval-2" fill="#D8D8D8" cx="79.4039429" cy="136.822353" rx="1.26038005" ry="1.26103552"></ellipse>
                    <ellipse id="Oval-Copy" fill="#444444" cx="149.67013" cy="138.398648" rx="6.61699524" ry="6.62043646"></ellipse>
                    <ellipse id="Oval-2-Copy" fill="#D8D8D8" cx="149.985225" cy="136.822353" rx="1.26038005" ry="1.26103552"></ellipse>
                    <path d="M55.6254063,131.4486 L57.7272745,143.014887 C58.9504555,149.745881 65.6203241,155.313195 72.4558769,155.313195 L89.5029468,155.313195 C96.3355391,155.313195 103.009227,149.741155 104.231549,143.014887 L106.333417,131.4486 C107.481162,125.13272 103.381895,120.223065 96.9648826,120.223065 L64.9939411,120.223065 C58.5822469,120.223065 54.4787524,125.138724 55.6254063,131.4486 Z" id="Rectangle-5" stroke="#444444" stroke-width="6"></path>
                    <path d="M123.685929,131.4486 L125.787797,143.014887 C127.010978,149.745881 133.680847,155.313195 140.516399,155.313195 L157.563469,155.313195 C164.396062,155.313195 171.06975,149.741155 172.292072,143.014887 L174.39394,131.4486 C175.541685,125.13272 171.442418,120.223065 165.025405,120.223065 L133.054464,120.223065 C126.642769,120.223065 122.539275,125.138724 123.685929,131.4486 Z" id="Rectangle-5-Copy" stroke="#444444" stroke-width="6"></path>
                    <path d="M174.272511,130.489762 L190.632482,122.635704" id="Path-6" stroke="#444444" stroke-width="9"></path>
                    <path d="M38.6318374,130.517176 L54.6393393,123.192637" id="Path-6-Copy" stroke="#444444" stroke-width="9" transform="translate(46.635588, 126.854907) scale(-1, 1) translate(-46.635588, -126.854907) "></path>
                    <path d="M140,301.791702 C140,301.791702 146.480233,289.698809 162.163957,283.102473 C190.435987,271.211687 226.128244,264.817458 226.128244,264.817458" id="Path-8-Copy-2" stroke="#444444" stroke-width="5" transform="translate(183.064122, 283.304580) scale(-1, 1) translate(-183.064122, -283.304580) "></path>
                    <path d="M0,301.791702 C0,301.791702 6.48023337,289.698809 22.1639568,283.102473 C50.4359875,271.211687 86.1282442,264.817458 86.1282442,264.817458" id="Path-8-Copy-3" stroke="#444444" stroke-width="5"></path>
                </g>
            </g>
        </g>
    </g>
</svg>